<?xml version="1.0" encoding="utf-8"?>
<!-- Generator: Adobe Illustrator 28.0.0, SVG Export Plug-In . SVG Version: 6.00 Build 0)  -->
<svg version="1.1" id="Layer_1" xmlns="http://www.w3.org/2000/svg" xmlns:xlink="http://www.w3.org/1999/xlink" x="0px" y="0px"
	 viewBox="0 0 407.5 55" style="enable-background:new 0 0 407.5 55;" xml:space="preserve">
<style type="text/css">
	.st0{fill:#414B59;}
	.st1{fill:#1C97C3;}
	.st2{fill:#2462AA;}
	.st3{fill:#095AA5;}
	.st4{fill:#0767A3;}
	.st5{fill:#169CAB;}
	.st6{fill:url(#SVGID_1_);}
	.st7{fill:#DA1A32;}
	.st8{fill:url(#SVGID_00000026132615460095052060000016770112134849335168_);}
	.st9{fill:url(#SVGID_00000059309044232002256930000008311471091615142843_);}
	.st10{fill:url(#SVGID_00000013175613940852432220000000353903455427966596_);}
	.st11{fill:url(#SVGID_00000008843591492488407140000002348432873675434406_);}
	.st12{fill:#231F20;}
</style>
<path class="st0" d="M60.3,18.8h8c4,0,6.8,2,6.8,5.6c0.1,1.9-0.9,3.8-2.7,4.7v0.1c2.2,0.7,3.7,2.8,3.5,5.1c0,4.4-3.5,6.4-7.6,6.4
	h-8.1L60.3,18.8z M68.4,27.8c1.4,0,2.6-1.1,2.7-2.5c0-0.1,0-0.2,0-0.3c0.1-1.4-0.9-2.6-2.3-2.7c-0.1,0-0.3,0-0.5,0h-3.9v5.6
	L68.4,27.8z M68.8,37.4c1.7,0.1,3-1.2,3.1-2.9c0-0.1,0-0.2,0-0.3c0.1-1.7-1.2-3.1-2.8-3.2c-0.1,0-0.2,0-0.3,0h-4.4v6.4L68.8,37.4z"
	/>
<rect x="78.3" y="24.9" transform="matrix(1 -2.967042e-03 2.967042e-03 1 -9.705997e-02 0.2383)" class="st0" width="3.9" height="15.8"/>
<rect x="85.5" y="18.7" transform="matrix(1 -2.967042e-03 2.967042e-03 1 -8.775216e-02 0.2597)" class="st0" width="3.9" height="22"/>
<path class="st0" d="M107.4,24.7l0.1,15c0,5.4-4.2,7.5-8.3,7.5c-1.9,0-3.9-0.5-5.6-1.3l1.2-3.1c1.4,0.7,2.9,1,4.4,1
	c2.4,0,4.5-1,4.4-3.9v-0.7c0-0.4,0-0.8,0-0.8h-0.1c-1,1.4-2.7,2.2-4.4,2.1c-4.5,0-7.1-3.6-7.1-8s2.4-7.9,7-7.9
	c3.7,0,4.9,2.2,4.9,2.2h0.1c0,0,0-1.8,0-2L107.4,24.7z M103.6,32.4c0-3.6-1.8-4.6-3.9-4.6c-2.4,0-3.7,1.8-3.7,4.4s1.4,4.8,4,4.8
	C101.9,37,103.7,35.9,103.6,32.4"/>
<path class="st0" d="M117.8,24.4c4.5,0,7,3.3,7,7.5c0,0.5-0.1,1.5-0.1,1.5h-10.9c0.2,2.5,2.3,4.4,4.8,4.2c1.6-0.1,3.2-0.7,4.4-1.8
	l1.7,2.7c-1.7,1.5-4,2.4-6.3,2.4c-4.5,0.2-8.3-3.2-8.5-7.7c0-0.2,0-0.4,0-0.6C109.8,27.9,113.1,24.5,117.8,24.4 M120.8,30.7
	c0.1-1.7-1.3-3.1-3-3.2c0,0,0,0,0,0c-1.9-0.1-3.6,1.3-3.9,3.2L120.8,30.7z"/>
<path class="st0" d="M142.1,40.5l-2.1-5.6h-7.4l-1.9,5.7h-4.6l8.1-22h4.2l8,22L142.1,40.5z M139.1,31.5l-2.8-8.5h-0.1l-2.7,8.5
	L139.1,31.5z"/>
<path class="st0" d="M158.6,40.5c0-0.3,0-1.7,0-1.7h-0.1c0,0-1.3,2-4.9,2c-4.3,0-7-3.4-7.1-8.2s3-8.3,7.2-8.3c3.4,0,4.6,1.7,4.6,1.7
	v-7.6h3.9l0.1,22L158.6,40.5z M158.4,32.6c0-2.5-1.3-4.9-3.9-4.9c-2.2,0-4,1.8-3.9,4.9s1.6,5,3.9,4.9
	C156.5,37.6,158.5,36.1,158.4,32.6"/>
<path class="st0" d="M201.8,40.4v-9.2c0-1.8-0.6-3.3-2.6-3.3c-2.8,0-3.6,2.4-3.6,4.3c0,0.7,0,8.1,0,8.1h-3.9v-9.6c0-1.7-0.6-3-2.7-3
	c-2.2,0-3.5,1.6-3.5,3.9v1.8v6.9h-3.9V24.8h3.7c0,0.3,0,1.5,0,1.5c1.3-1.5,3.2-2.3,5.2-2.2c2-0.2,3.9,1.1,4.5,3
	c1.1-2.1,3-2.9,5.6-2.9c2.3,0,5.2,1.9,5.2,6.1v9.9L201.8,40.4z"/>
<path class="st0" d="M82.8,20.5c0,1.4-1.1,2.5-2.6,2.5c-1.4,0-2.5-1.1-2.5-2.5c0-1.4,1.1-2.5,2.5-2.5C81.6,18,82.8,19.1,82.8,20.5"
	/>
<path class="st0" d="M178.5,40.4v-9.9c0-3.5-1.6-6.3-6.8-6.3c-2,0.1-4,0.7-5.7,1.9l1.7,2.7c1.1-0.9,2.5-1.4,4-1.5
	c2,0,2.9,0.6,2.9,2.8v0.1H174c-2.6,0-9.4,0.7-9.4,5.7c0,3.2,2.6,4.9,5.4,4.9c3.6,0,4.8-2.1,4.8-2.1v1.8L178.5,40.4z M174.6,34
	c0.1,2-1.4,3.6-3.3,3.8c-0.1,0-0.2,0-0.3,0c-1.2,0.2-2.2-0.7-2.4-1.8c0-0.1,0-0.1,0-0.2c0-2.2,3.2-2.8,5.3-2.8h0.7L174.6,34z"/>
<polygon class="st1" points="215.8,21.4 209.3,21.4 209.3,19.1 225.3,19.1 225.3,21.4 218.7,21.4 218.7,40.7 215.8,40.7 "/>
<path class="st1" d="M225.3,33.4c0.1,3.8,2.5,5.4,5.3,5.4c1.5,0,2.9-0.2,4.3-0.8l0.5,2c-1.6,0.7-3.4,1-5.2,1c-4.8,0-7.6-3.1-7.6-7.8
	s2.8-8.4,7.3-8.4c5.1,0,6.4,4.5,6.4,7.3c0,0.4,0,0.9-0.1,1.3L225.3,33.4z M233.6,31.4c0-1.8-0.7-4.6-3.9-4.6c-2.9,0-4.1,2.6-4.3,4.6
	H233.6z"/>
<path class="st1" d="M241,32.3L241,32.3c0.4-0.5,0.9-1.2,1.4-1.8l4.6-5.4h3.4l-6,6.4l6.8,9.1h-3.4l-5.4-7.4l-1.5,1.6v5.8h-2.8V17.9
	h2.8V32.3z"/>
<path class="st1" d="M252.2,29.4c0-1.6,0-2.9-0.1-4.2h2.5l0.2,2.6h0.1c1-1.9,3-3,5.1-2.9c2.1,0,5.5,1.3,5.5,6.6v9.3h-2.8v-9
	c0-2.5-0.9-4.6-3.6-4.6c-2.3,0.1-4,1.9-4,4.2v9.4h-2.8L252.2,29.4z"/>
<path class="st1" d="M282.5,32.8c0,5.7-4,8.2-7.7,8.2c-4.2,0-7.5-3.1-7.5-8c0-5.2,3.4-8.3,7.7-8.3C279.4,24.8,282.5,28.1,282.5,32.8
	 M270.1,33c0,3.4,2,6,4.7,6s4.7-2.5,4.7-6c0-2.6-1.3-6-4.7-6S270.1,30.1,270.1,33"/>
<rect x="284.4" y="17.9" class="st1" width="2.8" height="22.8"/>
<path class="st1" d="M304.5,32.8c0,5.7-4,8.2-7.7,8.2c-4.2,0-7.5-3.1-7.5-8c0-5.2,3.4-8.3,7.7-8.3C301.4,24.8,304.5,28.1,304.5,32.8
	 M292.1,33c0,3.4,2,6,4.7,6s4.7-2.5,4.7-6c0-2.6-1.3-6-4.7-6S292.1,30.1,292.1,33"/>
<path class="st1" d="M302.6,45.2c1.1,0,2.2-0.4,3.1-1.2c0.8-0.9,1.1-2.1,1.1-5.8v-13h2.8v14.1c0,3-0.5,5-1.9,6.4
	c-1.3,1.2-3,1.8-4.8,1.8L302.6,45.2z M309.9,20.8c0,0.9-0.7,1.7-1.6,1.7c-0.1,0-0.1,0-0.2,0c-0.9,0-1.7-0.7-1.7-1.6c0,0,0-0.1,0-0.1
	c0-0.9,0.7-1.8,1.6-1.8c0.1,0,0.1,0,0.2,0c0.9,0,1.7,0.7,1.7,1.6C309.9,20.7,309.9,20.7,309.9,20.8"/>
<path class="st1" d="M315.8,20.8c0,1-0.8,1.8-1.8,1.8s-1.8-0.8-1.8-1.8c0-0.9,0.7-1.8,1.6-1.8c0,0,0.1,0,0.1,0
	c0.9,0,1.7,0.7,1.7,1.6C315.7,20.7,315.7,20.7,315.8,20.8 M312.6,25.1h2.8v15.6h-2.8L312.6,25.1z"/>
<path class="st0" d="M27.5,52.9c-14,0-25.3-11.3-25.3-25.3c0-13.9,11.3-25.3,25.3-25.3l0,0c14,0,25.3,11.3,25.3,25.3
	C52.8,41.6,41.5,52.9,27.5,52.9 M27.5,6.1c-11.9,0-21.6,9.6-21.6,21.5c0,11.9,9.6,21.6,21.5,21.6s21.6-9.6,21.6-21.5
	c0-5.7-2.3-11.2-6.3-15.3C38.7,8.3,33.2,6.1,27.5,6.1"/>
<path class="st0" d="M27.5,31.1c-2.1,0-3.8-1.7-3.8-3.8s1.7-3.8,3.8-3.8s3.8,1.7,3.8,3.8c0,0,0,0,0,0C31.3,29.5,29.6,31.1,27.5,31.1
	C27.5,31.2,27.5,31.1,27.5,31.1"/>
<path class="st2" d="M37.7,36.9c-2.1,0-3.8-1.7-3.8-3.8c0-2.1,1.7-3.8,3.8-3.8c1.7,0,3.2,1.1,3.6,2.8c0.5,2-0.7,4.1-2.7,4.6
	C38.3,36.9,38,36.9,37.7,36.9"/>
<path class="st1" d="M37.9,25.1c-1.3,0-2.6-0.7-3.2-1.9c-1-1.8-0.5-4.1,1.3-5.1c1.8-1.1,4.1-0.5,5.1,1.3s0.5,4.1-1.3,5.1
	C39.2,25,38.6,25.1,37.9,25.1"/>
<path class="st3" d="M27.5,19.1c-2.1,0-3.8-1.7-3.8-3.8s1.7-3.8,3.8-3.8s3.8,1.7,3.8,3.8S29.6,19.1,27.5,19.1L27.5,19.1z"/>
<path class="st4" d="M17.1,25.1c-2.1,0-3.8-1.7-3.8-3.8s1.7-3.8,3.8-3.8c1.7,0,3.2,1.1,3.6,2.8c0.3,1,0.1,2-0.4,2.9
	C19.7,24.4,18.4,25.1,17.1,25.1"/>
<path class="st5" d="M17.1,37.1c-2.1,0-3.8-1.7-3.8-3.7c0-1.3,0.7-2.6,1.9-3.3c0.6-0.3,1.2-0.5,1.9-0.5c1.3,0,2.6,0.7,3.3,1.9
	c1,1.8,0.4,4.1-1.4,5.1C18.5,37,17.8,37.1,17.1,37.1"/>
<path class="st0" d="M24.2,50.7V38c0.1-1.8,1.7-3.3,3.5-3.2c1.7,0.1,3.1,1.5,3.2,3.2v12.7"/>
<g>
	<g>
		<g>
			<linearGradient id="SVGID_1_" gradientUnits="userSpaceOnUse" x1="360.3947" y1="35.3425" x2="360.3947" y2="35.3425">
				<stop  offset="1.161859e-02" style="stop-color:#BE1E2D"/>
				<stop  offset="0.3038" style="stop-color:#EC1C24"/>
				<stop  offset="0.7019" style="stop-color:#EC1C24"/>
				<stop  offset="1" style="stop-color:#BE1E2D"/>
			</linearGradient>
			<path class="st6" d="M360.4,35.3"/>
			<g>
				<path class="st7" d="M394,35.4c-4,0-7.5-2.6-8.7-6.3c-0.5,1.9-1.4,3.8-2.8,5.3c2.1,2.2,5.1,3.6,8.4,3.6c4.6,0,8.6-2.7,10.5-6.5
					C399.8,33.9,397.1,35.4,394,35.4z"/>
				<polygon class="st7" points="407.5,23.5 404.1,24.6 402.1,21.8 402.1,25.2 398.7,26.3 402.1,27.3 402.1,30.7 404.1,28 407.5,29 
					405.4,26.3 				"/>
				<polygon class="st7" points="356.8,14.5 348.1,19 350.7,23.7 353.5,22.3 353.5,40.7 360.5,35.4 360.5,17.9 				"/>
				<path class="st7" d="M391,14.5c-5.4,0-9.9,3.6-11.3,8.5c0,0.1,0,0.1-0.1,0.2c-0.1,0.3-0.1,0.5-0.2,0.8c0,0.2-0.1,0.3-0.1,0.5
					c0,0.2-0.1,0.4-0.1,0.6c0,0.4-0.1,0.7-0.1,1.1c0,0,0,0.1,0,0.1c0,3.3-2.7,6-6,6c-3.3,0-6-2.7-6-6s2.7-6,6-6
					c2.4,0,4.5,1.4,5.5,3.5c0.4-2.1,1.4-4.1,2.9-5.8c-2.1-2.2-5.1-3.5-8.4-3.5c-6.5,0-11.8,5.3-11.8,11.8c0,6.5,5.3,11.8,11.8,11.8
					c3.6,0,6.7-1.6,8.9-4.1c0,0,0,0,0,0c0.1-0.2,0.3-0.4,0.4-0.5c0.1-0.1,0.1-0.1,0.2-0.2c0.1-0.2,0.3-0.4,0.4-0.6
					c0,0,0-0.1,0.1-0.1c0.4-0.7,0.8-1.4,1-2.1c0-0.1,0.1-0.2,0.1-0.4c0.1-0.2,0.1-0.3,0.1-0.5c0.1-0.2,0.1-0.5,0.2-0.7
					c0-0.1,0-0.1,0-0.2c0.2-1.2,0-2.3,0.2-3.5c0.6-4.5,4.4-8,9.1-8c3.1,0,5.8,1.5,7.5,3.9C399.5,17.1,395.6,14.5,391,14.5z"/>
			</g>
			
				<linearGradient id="SVGID_00000005982029467185335110000008652030435683679881_" gradientUnits="userSpaceOnUse" x1="382.5243" y1="33.6087" x2="401.4792" y2="33.6087">
				<stop  offset="0" style="stop-color:#231F20;stop-opacity:0.25"/>
				<stop  offset="4.338756e-02" style="stop-color:#4E4B4C;stop-opacity:0.2138"/>
				<stop  offset="0.1116" style="stop-color:#8D8A8B;stop-opacity:0.157"/>
				<stop  offset="0.1739" style="stop-color:#BEBDBD;stop-opacity:0.1051"/>
				<stop  offset="0.228" style="stop-color:#E1E1E1;stop-opacity:6.001720e-02"/>
				<stop  offset="0.2719" style="stop-color:#F7F7F7;stop-opacity:2.345097e-02"/>
				<stop  offset="0.3" style="stop-color:#FFFFFF;stop-opacity:0"/>
				<stop  offset="0.7" style="stop-color:#FFFFFF;stop-opacity:0"/>
				<stop  offset="1" style="stop-color:#231F20;stop-opacity:0.25"/>
			</linearGradient>
			<path style="fill:url(#SVGID_00000005982029467185335110000008652030435683679881_);" d="M394,35.4c-4,0-7.5-2.6-8.7-6.3
				c-0.5,1.9-1.4,3.8-2.8,5.3c2.1,2.2,5.1,3.6,8.4,3.6c4.6,0,8.6-2.7,10.5-6.5C399.8,33.9,397.1,35.4,394,35.4z"/>
			
				<linearGradient id="SVGID_00000055689259256477626380000018277866682131777960_" gradientUnits="userSpaceOnUse" x1="398.7259" y1="26.2616" x2="407.459" y2="26.2616">
				<stop  offset="0" style="stop-color:#231F20;stop-opacity:0.25"/>
				<stop  offset="4.338756e-02" style="stop-color:#4E4B4C;stop-opacity:0.2138"/>
				<stop  offset="0.1116" style="stop-color:#8D8A8B;stop-opacity:0.157"/>
				<stop  offset="0.1739" style="stop-color:#BEBDBD;stop-opacity:0.1051"/>
				<stop  offset="0.228" style="stop-color:#E1E1E1;stop-opacity:6.001720e-02"/>
				<stop  offset="0.2719" style="stop-color:#F7F7F7;stop-opacity:2.345097e-02"/>
				<stop  offset="0.3" style="stop-color:#FFFFFF;stop-opacity:0"/>
				<stop  offset="0.7" style="stop-color:#FFFFFF;stop-opacity:0"/>
				<stop  offset="1" style="stop-color:#231F20;stop-opacity:0.25"/>
			</linearGradient>
			<polygon style="fill:url(#SVGID_00000055689259256477626380000018277866682131777960_);" points="407.5,23.5 404.1,24.6 
				402.1,21.8 402.1,25.2 398.7,26.3 402.1,27.3 402.1,30.7 404.1,28 407.5,29 405.4,26.3 			"/>
			
				<linearGradient id="SVGID_00000153674032190511547830000008975834648348436100_" gradientUnits="userSpaceOnUse" x1="361.3936" y1="26.2616" x2="401.479" y2="26.2616">
				<stop  offset="0" style="stop-color:#231F20;stop-opacity:0.25"/>
				<stop  offset="4.338756e-02" style="stop-color:#4E4B4C;stop-opacity:0.2138"/>
				<stop  offset="0.1116" style="stop-color:#8D8A8B;stop-opacity:0.157"/>
				<stop  offset="0.1739" style="stop-color:#BEBDBD;stop-opacity:0.1051"/>
				<stop  offset="0.228" style="stop-color:#E1E1E1;stop-opacity:6.001720e-02"/>
				<stop  offset="0.2719" style="stop-color:#F7F7F7;stop-opacity:2.345097e-02"/>
				<stop  offset="0.3" style="stop-color:#FFFFFF;stop-opacity:0"/>
				<stop  offset="0.7" style="stop-color:#FFFFFF;stop-opacity:0"/>
				<stop  offset="1" style="stop-color:#231F20;stop-opacity:0.25"/>
			</linearGradient>
			<path style="fill:url(#SVGID_00000153674032190511547830000008975834648348436100_);" d="M391,14.5c-5.4,0-9.9,3.6-11.3,8.5
				c0,0.1,0,0.1-0.1,0.2c-0.1,0.3-0.1,0.5-0.2,0.8c0,0.2-0.1,0.3-0.1,0.5c0,0.2-0.1,0.4-0.1,0.6c0,0.4-0.1,0.7-0.1,1.1
				c0,0,0,0.1,0,0.1c0,3.3-2.7,6-6,6c-3.3,0-6-2.7-6-6s2.7-6,6-6c2.4,0,4.5,1.4,5.5,3.5c0.4-2.1,1.4-4.1,2.9-5.8
				c-2.1-2.2-5.1-3.5-8.4-3.5c-6.5,0-11.8,5.3-11.8,11.8c0,6.5,5.3,11.8,11.8,11.8c3.6,0,6.7-1.6,8.9-4.1c0,0,0,0,0,0
				c0.1-0.2,0.3-0.4,0.4-0.5c0.1-0.1,0.1-0.1,0.2-0.2c0.1-0.2,0.3-0.4,0.4-0.6c0,0,0-0.1,0.1-0.1c0.4-0.7,0.8-1.4,1-2.1
				c0-0.1,0.1-0.2,0.1-0.4c0.1-0.2,0.1-0.3,0.1-0.5c0.1-0.2,0.1-0.5,0.2-0.7c0-0.1,0-0.1,0-0.2c0.2-1.2,0-2.3,0.2-3.5
				c0.6-4.5,4.4-8,9.1-8c3.1,0,5.8,1.5,7.5,3.9C399.5,17.1,395.6,14.5,391,14.5z"/>
			
				<linearGradient id="SVGID_00000114779004028361976010000004852677322335697045_" gradientUnits="userSpaceOnUse" x1="348.0565" y1="27.6122" x2="360.5099" y2="27.6122">
				<stop  offset="0" style="stop-color:#231F20;stop-opacity:0.25"/>
				<stop  offset="4.338756e-02" style="stop-color:#4E4B4C;stop-opacity:0.2138"/>
				<stop  offset="0.1116" style="stop-color:#8D8A8B;stop-opacity:0.157"/>
				<stop  offset="0.1739" style="stop-color:#BEBDBD;stop-opacity:0.1051"/>
				<stop  offset="0.228" style="stop-color:#E1E1E1;stop-opacity:6.001720e-02"/>
				<stop  offset="0.2719" style="stop-color:#F7F7F7;stop-opacity:2.345097e-02"/>
				<stop  offset="0.3" style="stop-color:#FFFFFF;stop-opacity:0"/>
				<stop  offset="0.7" style="stop-color:#FFFFFF;stop-opacity:0"/>
				<stop  offset="1" style="stop-color:#231F20;stop-opacity:0.25"/>
			</linearGradient>
			<polygon style="fill:url(#SVGID_00000114779004028361976010000004852677322335697045_);" points="356.8,14.5 348.1,19 
				350.7,23.7 353.5,22.3 353.5,40.7 360.5,35.4 360.5,17.9 			"/>
		</g>
	</g>
	<g>
		<path class="st12" d="M354,46.1C354,46.1,354,46,354,46.1l0-2.2c0,0,0,0,0,0h-0.4c0,0,0,0,0,0v-0.3c0,0,0,0,0,0h1.2c0,0,0,0,0,0
			v0.3c0,0,0,0,0,0h-0.4c0,0,0,0,0,0V46c0,0,0,0,0,0H354z"/>
		<path class="st12" d="M355.1,45.4v-1.9c0,0,0,0,0,0h0.3c0,0,0,0,0,0v1.9c0,0.2,0.1,0.3,0.2,0.3s0.2-0.1,0.2-0.3v-1.9c0,0,0,0,0,0
			h0.3c0,0,0,0,0,0v1.9c0,0.5-0.2,0.7-0.6,0.7C355.3,46.1,355.1,45.9,355.1,45.4z M355.3,43.2C355.3,43.2,355.3,43.1,355.3,43.2
			l0-0.4c0,0,0,0,0,0h0.2c0,0,0,0,0,0v0.3c0,0,0,0,0,0H355.3z M355.9,43.2C355.9,43.2,355.9,43.1,355.9,43.2l0-0.4c0,0,0,0,0,0h0.2
			c0,0,0,0,0,0v0.3c0,0,0,0,0,0H355.9z"/>
		<path class="st12" d="M357.7,46.1C357.7,46.1,357.7,46.1,357.7,46.1l-0.4-1h-0.1h-0.1c0,0,0,0,0,0v1c0,0,0,0,0,0h-0.3c0,0,0,0,0,0
			v-2.5c0,0,0,0,0,0h0.5c0.5,0,0.7,0.2,0.7,0.8c0,0.3-0.1,0.5-0.3,0.7l0.4,1.1c0,0,0,0,0,0H357.7z M357.7,44.3
			c0-0.3-0.1-0.4-0.3-0.4h-0.1c0,0,0,0,0,0v0.7c0,0,0,0,0,0h0.1C357.6,44.6,357.7,44.6,357.7,44.3z"/>
		<path class="st12" d="M358.4,43.5C358.4,43.5,358.4,43.5,358.4,43.5l0.4,0c0,0,0,0,0,0v1.1l0.5-1.1c0,0,0,0,0,0h0.3c0,0,0,0,0,0
			l-0.5,1l0.6,1.5c0,0,0,0,0,0h-0.4c0,0,0,0,0,0l-0.4-1.1l-0.2,0.4V46c0,0,0,0,0,0h-0.3c0,0,0,0,0,0V43.5z"/>
		<path class="st12" d="M360.1,43.5C360.1,43.5,360.1,43.5,360.1,43.5l0.4,0c0,0,0,0,0,0V46c0,0,0,0,0,0h-0.3c0,0,0,0,0,0V43.5z
			 M360.1,43.2C360.1,43.2,360.1,43.1,360.1,43.2l0-0.4c0,0,0,0,0,0h0.3c0,0,0,0,0,0v0.3c0,0,0,0,0,0H360.1z"/>
		<path class="st12" d="M361.3,46.1C361.2,46.1,361.2,46,361.3,46.1l0-1.1l-0.5-1.5c0,0,0,0,0,0h0.3c0,0,0,0,0,0l0.3,1h0l0.3-1
			c0,0,0,0,0,0h0.3c0,0,0,0,0,0l-0.5,1.5v1c0,0,0,0,0,0H361.3z"/>
		<path class="st12" d="M362.3,43.5C362.3,43.5,362.4,43.5,362.3,43.5l1.1,0c0,0,0,0,0,0v0.3c0,0,0,0,0,0h-0.7c0,0,0,0,0,0v0.7
			c0,0,0,0,0,0h0.6c0,0,0,0,0,0v0.3c0,0,0,0,0,0h-0.6c0,0,0,0,0,0v0.7c0,0,0,0,0,0h0.7c0,0,0,0,0,0V46c0,0,0,0,0,0h-1.1c0,0,0,0,0,0
			V43.5z"/>
		<path class="st12" d="M364.5,44.8c0-0.7,0-0.8,0-0.9c0.1-0.2,0.3-0.4,0.6-0.4c0.4,0,0.6,0.2,0.6,0.6c0,0,0,0,0,0l-0.3,0.1
			c0,0,0,0,0,0c0-0.2-0.1-0.3-0.2-0.3c-0.1,0-0.2,0-0.2,0.1c0,0.1,0,0.1,0,0.8c0,0.7,0,0.7,0,0.8c0,0.1,0.1,0.1,0.2,0.1
			c0.1,0,0.2-0.1,0.2-0.3c0,0,0,0,0,0l0.3,0.1c0,0,0,0,0,0c0,0.4-0.3,0.6-0.6,0.6c-0.3,0-0.5-0.1-0.6-0.4
			C364.5,45.6,364.5,45.5,364.5,44.8z"/>
		<path class="st12" d="M366,45.4v-1.9c0,0,0,0,0,0h0.3c0,0,0,0,0,0v1.9c0,0.2,0.1,0.3,0.2,0.3s0.2-0.1,0.2-0.3v-1.9c0,0,0,0,0,0
			h0.3c0,0,0,0,0,0v1.9c0,0.5-0.2,0.7-0.6,0.7C366.2,46.1,366,45.9,366,45.4z"/>
		<path class="st12" d="M367.6,43.5C367.6,43.5,367.7,43.5,367.6,43.5l0.4,0c0,0,0.1,0,0.1,0l0.4,1.4h0l0.4-1.4c0,0,0,0,0.1,0h0.3
			c0,0,0,0,0,0V46c0,0,0,0,0,0H369c0,0,0,0,0,0v-1.6h0l-0.3,1.2c0,0,0,0,0,0h-0.2c0,0,0,0,0,0l-0.3-1.2h0V46c0,0,0,0,0,0h-0.3
			c0,0,0,0,0,0V43.5z"/>
		<path class="st12" d="M369.8,43.5C369.8,43.5,369.8,43.5,369.8,43.5l0.4,0c0,0,0,0,0,0v1c0,0,0,0,0,0h0.4c0,0,0,0,0,0v-1
			c0,0,0,0,0,0h0.3c0,0,0,0,0,0V46c0,0,0,0,0,0h-0.3c0,0,0,0,0,0V45c0,0,0,0,0,0h-0.4c0,0,0,0,0,0V46c0,0,0,0,0,0h-0.3c0,0,0,0,0,0
			V43.5z"/>
		<path class="st12" d="M371.4,45.4v-1.9c0,0,0,0,0,0h0.3c0,0,0,0,0,0v1.9c0,0.2,0.1,0.3,0.2,0.3c0.2,0,0.2-0.1,0.2-0.3v-1.9
			c0,0,0,0,0,0h0.3c0,0,0,0,0,0v1.9c0,0.5-0.2,0.7-0.6,0.7C371.7,46.1,371.4,45.9,371.4,45.4z"/>
		<path class="st12" d="M374.1,46.1C374.1,46.1,374.1,46.1,374.1,46.1l-0.4-1h-0.1h-0.1c0,0,0,0,0,0v1c0,0,0,0,0,0h-0.3c0,0,0,0,0,0
			v-2.5c0,0,0,0,0,0h0.5c0.5,0,0.7,0.2,0.7,0.8c0,0.3-0.1,0.5-0.3,0.7l0.4,1.1c0,0,0,0,0,0H374.1z M374,44.3c0-0.3-0.1-0.4-0.3-0.4
			h-0.1c0,0,0,0,0,0v0.7c0,0,0,0,0,0h0.1C373.9,44.6,374,44.6,374,44.3z"/>
		<path class="st12" d="M374.8,43.5C374.8,43.5,374.8,43.5,374.8,43.5l0.4,0c0,0,0,0,0,0V46c0,0,0,0,0,0h-0.3c0,0,0,0,0,0V43.5z
			 M374.8,43.2C374.8,43.2,374.8,43.1,374.8,43.2l0-0.4c0,0,0,0,0,0h0.3c0,0,0,0,0,0v0.3c0,0,0,0,0,0H374.8z"/>
		<path class="st12" d="M375.9,46.1C375.9,46.1,375.9,46,375.9,46.1l0-1.1l-0.5-1.5c0,0,0,0,0,0h0.3c0,0,0,0,0,0l0.3,1h0l0.3-1
			c0,0,0,0,0,0h0.3c0,0,0,0,0,0l-0.5,1.5v1c0,0,0,0,0,0H375.9z"/>
		<path class="st12" d="M377,43.5C377,43.5,377,43.5,377,43.5l1.1,0c0,0,0,0,0,0v0.3c0,0,0,0,0,0h-0.7c0,0,0,0,0,0v0.7c0,0,0,0,0,0
			h0.6c0,0,0,0,0,0v0.3c0,0,0,0,0,0h-0.6c0,0,0,0,0,0v0.7c0,0,0,0,0,0h0.7c0,0,0,0,0,0V46c0,0,0,0,0,0h-1.1c0,0,0,0,0,0V43.5z"/>
		<path class="st12" d="M378.8,46.1C378.8,46.1,378.8,46,378.8,46.1l0-2.2c0,0,0,0,0,0h-0.4c0,0,0,0,0,0v-0.3c0,0,0,0,0,0h1.2
			c0,0,0,0,0,0v0.3c0,0,0,0,0,0h-0.4c0,0,0,0,0,0V46c0,0,0,0,0,0H378.8z"/>
		<path class="st12" d="M379.9,43.5C379.9,43.5,379.9,43.5,379.9,43.5l0.4,0c0,0,0,0,0,0V46c0,0,0,0,0,0h-0.3c0,0,0,0,0,0V43.5z
			 M379.9,43.2C379.9,43.2,379.9,43.1,379.9,43.2l0-0.4c0,0,0,0,0,0h0.3c0,0,0,0,0,0v0.3c0,0,0,0,0,0H379.9z"/>
		<path class="st12" d="M380.6,44.2v-0.6c0,0,0,0,0,0h0.2c0,0,0,0,0,0v0.6c0,0,0,0,0,0L380.6,44.2C380.6,44.2,380.6,44.2,380.6,44.2
			z"/>
		<path class="st12" d="M381.3,43.5C381.3,43.5,381.3,43.5,381.3,43.5l0.4,0c0,0,0,0,0.1,0l0.5,1.8h0v-1.8c0,0,0,0,0,0h0.3
			c0,0,0,0,0,0V46c0,0,0,0,0,0h-0.4c0,0,0,0-0.1,0l-0.5-1.8h0V46c0,0,0,0,0,0h-0.3c0,0,0,0,0,0V43.5z"/>
		<path class="st12" d="M383,43.5C383,43.5,383,43.5,383,43.5l0.4,0c0,0,0,0,0,0V46c0,0,0,0,0,0H383c0,0,0,0,0,0V43.5z M383.1,43.2
			C383,43.2,383,43.1,383.1,43.2l0-0.4c0,0,0,0,0,0h0.3c0,0,0,0,0,0v0.3c0,0,0,0,0,0H383.1z"/>
		<path class="st12" d="M383.8,43.5C383.8,43.5,383.8,43.5,383.8,43.5l0.4,0c0,0,0,0,0.1,0l0.5,1.8h0v-1.8c0,0,0,0,0,0h0.3
			c0,0,0,0,0,0V46c0,0,0,0,0,0h-0.4c0,0,0,0-0.1,0l-0.5-1.8h0V46c0,0,0,0,0,0h-0.3c0,0,0,0,0,0V43.5z"/>
		<path class="st12" d="M386.6,46.1C386.6,46.1,386.5,46,386.6,46.1l0-1.1l-0.5-1.5c0,0,0,0,0,0h0.3c0,0,0,0,0,0l0.3,1h0l0.3-1
			c0,0,0,0,0,0h0.3c0,0,0,0,0,0L387,45v1c0,0,0,0,0,0H386.6z"/>
		<path class="st12" d="M387.7,45.4v-1.9c0,0,0,0,0,0h0.3c0,0,0,0,0,0v1.9c0,0.2,0.1,0.3,0.2,0.3c0.2,0,0.2-0.1,0.2-0.3v-1.9
			c0,0,0,0,0,0h0.3c0,0,0,0,0,0v1.9c0,0.5-0.2,0.7-0.6,0.7C387.9,46.1,387.7,45.9,387.7,45.4z M387.9,43.2
			C387.9,43.2,387.9,43.1,387.9,43.2l0-0.4c0,0,0,0,0,0h0.2c0,0,0,0,0,0v0.3c0,0,0,0,0,0H387.9z M388.5,43.2
			C388.5,43.2,388.4,43.1,388.5,43.2l0-0.4c0,0,0,0,0,0h0.2c0,0,0,0,0,0v0.3c0,0,0,0,0,0H388.5z"/>
		<path class="st12" d="M389.3,46.1C389.3,46.1,389.3,46,389.3,46.1l0-0.3c0,0,0,0,0,0l0.7-1.8v0h-0.6c0,0,0,0,0,0v-0.3c0,0,0,0,0,0
			h1c0,0,0,0,0,0v0.3c0,0,0,0,0,0l-0.7,1.8v0h0.7c0,0,0,0,0,0V46c0,0,0,0,0,0H389.3z"/>
		<path class="st12" d="M390.7,45.4v-1.9c0,0,0,0,0,0h0.3c0,0,0,0,0,0v1.9c0,0.2,0.1,0.3,0.2,0.3s0.2-0.1,0.2-0.3v-1.9c0,0,0,0,0,0
			h0.3c0,0,0,0,0,0v1.9c0,0.5-0.2,0.7-0.6,0.7C391,46.1,390.7,45.9,390.7,45.4z M391,43.2C391,43.2,390.9,43.1,391,43.2l0-0.4
			c0,0,0,0,0,0h0.2c0,0,0,0,0,0v0.3c0,0,0,0,0,0H391z M391.5,43.2C391.5,43.2,391.5,43.1,391.5,43.2l0-0.4c0,0,0,0,0,0h0.2
			c0,0,0,0,0,0v0.3c0,0,0,0,0,0H391.5z"/>
		<path class="st12" d="M392.4,43.5C392.4,43.5,392.4,43.5,392.4,43.5l0.4,0c0,0,0,0,0.1,0l0.5,1.8h0v-1.8c0,0,0,0,0,0h0.3
			c0,0,0,0,0,0V46c0,0,0,0,0,0h-0.4c0,0,0,0-0.1,0l-0.5-1.8h0V46c0,0,0,0,0,0h-0.3c0,0,0,0,0,0V43.5z"/>
		<path class="st12" d="M394.1,44.8c0-0.7,0-0.8,0-0.9c0.1-0.2,0.3-0.4,0.6-0.4c0.4,0,0.6,0.2,0.6,0.6c0,0,0,0,0,0l-0.3,0.1
			c0,0,0,0,0,0c0-0.2-0.1-0.3-0.2-0.3c-0.1,0-0.2,0-0.2,0.1c0,0.1,0,0.1,0,0.8c0,0.7,0,0.7,0,0.8c0,0.1,0.1,0.1,0.2,0.1
			c0.1,0,0.2-0.1,0.2-0.3c0,0,0,0,0,0l0.3,0.1c0,0,0,0,0,0c0,0.4-0.3,0.6-0.6,0.6c-0.3,0-0.5-0.1-0.6-0.4
			C394.1,45.6,394.1,45.5,394.1,44.8z"/>
		<path class="st12" d="M395.6,45.4v-1.9c0,0,0,0,0,0h0.3c0,0,0,0,0,0v1.9c0,0.2,0.1,0.3,0.2,0.3s0.2-0.1,0.2-0.3v-1.9c0,0,0,0,0,0
			h0.3c0,0,0,0,0,0v1.9c0,0.5-0.2,0.7-0.6,0.7C395.9,46.1,395.6,45.9,395.6,45.4z M395.8,43.2C395.8,43.2,395.8,43.1,395.8,43.2
			l0-0.4c0,0,0,0,0,0h0.2c0,0,0,0,0,0v0.3c0,0,0,0,0,0H395.8z M396.4,43.2C396.4,43.2,396.4,43.1,396.4,43.2l0-0.4c0,0,0,0,0,0h0.2
			c0,0,0,0,0,0v0.3c0,0,0,0,0,0H396.4z"/>
		<path class="st12" d="M398.3,46.1C398.3,46.1,398.3,46,398.3,46.1l0-1.1l-0.5-1.5c0,0,0,0,0,0h0.3c0,0,0,0,0,0l0.3,1h0l0.3-1
			c0,0,0,0,0,0h0.3c0,0,0,0,0,0l-0.5,1.5v1c0,0,0,0,0,0H398.3z"/>
		<path class="st12" d="M399.4,43.5C399.4,43.5,399.4,43.5,399.4,43.5l0.4,0c0,0,0,0,0,0V46c0,0,0,0,0,0h-0.3c0,0,0,0,0,0V43.5z"/>
		<path class="st12" d="M400.2,43.5C400.2,43.5,400.2,43.5,400.2,43.5l0.4,0c0,0,0,0,0,0v2.1c0,0,0,0,0,0h0.7c0,0,0,0,0,0V46
			c0,0,0,0,0,0h-1.1c0,0,0,0,0,0V43.5z"/>
		<path class="st12" d="M401.6,43.5C401.6,43.5,401.6,43.5,401.6,43.5l0.4,0c0,0,0,0,0,0V46c0,0,0,0,0,0h-0.3c0,0,0,0,0,0V43.5z"/>
	</g>
</g>
</svg>
